<svg version="1.1" id="Layer_1" xmlns="http://www.w3.org/2000/svg" xmlns:xlink="http://www.w3.org/1999/xlink" x="0px" y="0px"
	 width="100%" viewBox="0 0 500 500" enable-background="new 0 0 500 500" xml:space="preserve">
<path fill="#000000" opacity="1.000000" stroke="none" 
	d="
M463.000000,501.000000 
	C308.666718,501.000000 154.833405,501.000000 1.000082,501.000000 
	C1.000055,334.333405 1.000055,167.666824 1.000028,1.000172 
	C167.666550,1.000115 334.333099,1.000115 500.999756,1.000057 
	C500.999817,167.666519 500.999817,334.333038 500.999908,500.999756 
	C488.500000,501.000000 476.000000,501.000000 463.000000,501.000000 
M159.247406,163.113327 
	C159.112244,163.042236 158.977081,162.971146 158.801559,163.001328 
	C158.801559,163.001328 159.054520,163.158005 159.247406,163.113327 
M116.922859,170.773865 
	C116.922859,170.773865 116.848518,171.028244 116.865982,171.243744 
	C117.001503,171.210388 117.137024,171.177032 117.272545,171.143677 
	C117.180069,171.042953 117.087593,170.942230 116.922859,170.773865 
M122.922867,174.773880 
	C122.922867,174.773880 122.848518,175.028259 122.865982,175.243744 
	C123.001503,175.210388 123.137024,175.177032 123.272552,175.143677 
	C123.180077,175.042953 123.087601,174.942230 122.922867,174.773880 
M140.010071,151.821671 
	C140.010071,151.821671 139.847443,152.080872 139.902298,152.256699 
	C140.030884,152.220856 140.159454,152.185013 140.288040,152.149155 
	C140.229630,152.048370 140.171219,151.947586 140.010071,151.821671 
M143.938248,155.810242 
	C143.938248,155.810242 143.653381,155.981430 143.653381,155.981430 
	C143.653381,155.981430 143.898987,156.247833 143.911057,156.627243 
	C144.241119,156.736130 144.571182,156.845001 144.901245,156.953873 
	C144.626572,156.618225 144.351913,156.282593 143.938248,155.810242 
M259.664062,116.662437 
	C259.869019,116.582169 260.074005,116.501900 260.278961,116.421631 
	C260.053406,116.436241 259.827881,116.450851 259.664062,116.662437 
M378.904480,333.863068 
	C378.904480,333.863068 378.866150,333.896973 378.904480,333.863068 
M135.774719,184.142212 
	C135.774719,184.142212 135.921906,184.265518 135.921906,184.265518 
	C135.921906,184.265518 135.835266,184.095520 135.774719,184.142212 
M147.531738,160.085709 
	C147.703247,160.217072 147.874756,160.348450 148.046265,160.479813 
	C147.939362,160.294769 147.832443,160.109711 147.531738,160.085709 
M257.807739,123.038445 
	C257.807739,123.038445 257.862335,123.378899 257.862335,123.378899 
	C257.862335,123.378899 257.945953,123.049080 257.807739,123.038445 
M372.506073,323.077301 
	C372.506073,323.077301 372.436462,323.019592 372.506073,323.077301 
M135.534653,148.001038 
	C135.534653,148.001038 135.483536,148.016113 135.534653,148.001038 
M137.000793,172.523346 
	C137.000793,172.523346 136.984940,172.468979 137.000793,172.523346 
M153.466034,164.996841 
	C153.466034,164.996841 153.522339,164.979889 153.466034,164.996841 
M128.978287,160.554779 
	C128.978287,160.554779 128.949203,160.470123 128.978287,160.554779 
M155.580948,166.503464 
	C155.580948,166.503464 155.484009,166.555634 155.580948,166.503464 
M150.480148,161.519043 
	C150.480148,161.519043 150.514755,161.512177 150.480148,161.519043 
z"/>
<path fill="#090909" opacity="1.000000" stroke="none" 
	d="
M259.633179,116.563950 
	C259.827881,116.450851 260.053406,116.436241 260.278961,116.421631 
	C260.074005,116.501900 259.869019,116.582169 259.633179,116.563950 
z"/>
<path fill="#070707" opacity="1.000000" stroke="none" 
	d="
M378.885315,333.880005 
	C378.866150,333.896973 378.904480,333.863068 378.885315,333.880005 
z"/>
<path fill="#0B0B0B" opacity="1.000000" stroke="none" 
	d="
M135.804993,184.118866 
	C135.835266,184.095520 135.921906,184.265518 135.921906,184.265518 
	C135.921906,184.265518 135.774719,184.142212 135.804993,184.118866 
z"/>
<path fill="#0C0C0C" opacity="1.000000" stroke="none" 
	d="
M147.628632,160.005188 
	C147.832443,160.109711 147.939362,160.294769 148.046265,160.479813 
	C147.874756,160.348450 147.703247,160.217072 147.628632,160.005188 
z"/>
<path fill="#0C0C0C" opacity="1.000000" stroke="none" 
	d="
M144.077240,155.946945 
	C144.351913,156.282593 144.626572,156.618225 144.901245,156.953873 
	C144.571182,156.845001 144.241119,156.736130 143.945633,156.359970 
	C143.980209,156.092697 144.077240,155.946945 144.077240,155.946945 
z"/>
<path fill="#090909" opacity="1.000000" stroke="none" 
	d="
M257.876831,123.043762 
	C257.945953,123.049080 257.862335,123.378899 257.862335,123.378899 
	C257.862335,123.378899 257.807739,123.038445 257.876831,123.043762 
z"/>
<path fill="#0C0C0C" opacity="1.000000" stroke="none" 
	d="
M140.112808,151.846802 
	C140.171219,151.947586 140.229630,152.048370 140.288040,152.149155 
	C140.159454,152.185013 140.030884,152.220856 139.941162,152.110199 
	C139.980026,151.963715 140.112808,151.846802 140.112808,151.846802 
z"/>
<path fill="#070707" opacity="1.000000" stroke="none" 
	d="
M372.471252,323.048462 
	C372.436462,323.019592 372.506073,323.077301 372.471252,323.048462 
z"/>
<path fill="#0C0C0C" opacity="1.000000" stroke="none" 
	d="
M135.509094,148.008575 
	C135.483536,148.016113 135.534653,148.001038 135.509094,148.008575 
z"/>
<path fill="#0B0B0B" opacity="1.000000" stroke="none" 
	d="
M122.995117,174.841522 
	C123.087601,174.942230 123.180077,175.042953 123.272552,175.143677 
	C123.137024,175.177032 123.001503,175.210388 122.895172,175.090317 
	C122.924362,174.936890 122.995117,174.841522 122.995117,174.841522 
z"/>
<path fill="#0B0B0B" opacity="1.000000" stroke="none" 
	d="
M136.992859,172.496155 
	C136.984940,172.468979 137.000793,172.523346 136.992859,172.496155 
z"/>
<path fill="#0B0B0B" opacity="1.000000" stroke="none" 
	d="
M116.995117,170.841507 
	C117.087593,170.942230 117.180069,171.042953 117.272545,171.143677 
	C117.137024,171.177032 117.001503,171.210388 116.895172,171.090302 
	C116.924362,170.936874 116.995117,170.841507 116.995117,170.841507 
z"/>
<path fill="#0C0C0C" opacity="1.000000" stroke="none" 
	d="
M153.494186,164.988373 
	C153.522339,164.979889 153.466034,164.996841 153.494186,164.988373 
z"/>
<path fill="#0C0C0C" opacity="1.000000" stroke="none" 
	d="
M158.841919,162.900055 
	C158.977081,162.971146 159.112244,163.042236 159.098633,163.070496 
	C158.949860,163.027664 158.841919,162.900055 158.841919,162.900055 
z"/>
<path fill="#0B0B0B" opacity="1.000000" stroke="none" 
	d="
M128.963745,160.512451 
	C128.949203,160.470123 128.978287,160.554779 128.963745,160.512451 
z"/>
<path fill="#0C0C0C" opacity="1.000000" stroke="none" 
	d="
M155.532471,166.529541 
	C155.484009,166.555634 155.580948,166.503464 155.532471,166.529541 
z"/>
<path fill="#0B0B0B" opacity="1.000000" stroke="none" 
	d="
M116.886444,170.982559 
	C116.848518,171.028244 116.922859,170.773865 116.958984,170.807678 
	C116.995117,170.841507 116.924362,170.936874 116.886444,170.982559 
z"/>
<path fill="#0C0C0C" opacity="1.000000" stroke="none" 
	d="
M159.002197,163.092834 
	C159.054520,163.158005 158.801559,163.001328 158.821747,162.950684 
	C158.841919,162.900055 158.949860,163.027664 159.002197,163.092834 
z"/>
<path fill="#0B0B0B" opacity="1.000000" stroke="none" 
	d="
M122.886444,174.982574 
	C122.848518,175.028259 122.922867,174.773880 122.958992,174.807709 
	C122.995117,174.841522 122.924362,174.936890 122.886444,174.982574 
z"/>
<path fill="#0C0C0C" opacity="1.000000" stroke="none" 
	d="
M150.497452,161.515610 
	C150.514755,161.512177 150.480148,161.519043 150.497452,161.515610 
z"/>
<path fill="#0C0C0C" opacity="1.000000" stroke="none" 
	d="
M139.913727,152.022293 
	C139.847443,152.080872 140.010071,151.821671 140.061432,151.834229 
	C140.112808,151.846802 139.980026,151.963715 139.913727,152.022293 
z"/>
<path fill="#0C0C0C" opacity="1.000000" stroke="none" 
	d="
M143.939606,156.170258 
	C143.898987,156.247833 143.653381,155.981430 143.653381,155.981430 
	C143.653381,155.981430 143.938248,155.810242 144.007751,155.878601 
	C144.077240,155.946945 143.980209,156.092697 143.939606,156.170258 
z"/>
</svg>